<svg width="64" height="64" viewBox="0 0 64 64" fill="none" xmlns="http://www.w3.org/2000/svg">
<path d="M32 0C49.6736 0 64 14.3264 64 32C64 49.6736 49.6736 64 32 64C26.8928 64.007 21.8586 62.7866 17.3216 60.4416L5.07842 63.856C4.39536 64.0466 3.67389 64.0522 2.98794 63.8722C2.302 63.6922 1.67624 63.3331 1.17478 62.8316C0.673319 62.3302 0.314192 61.7044 0.134194 61.0185C-0.0458045 60.3325 -0.040202 59.611 0.150427 58.928L3.56803 46.6944C1.21715 42.1534 -0.00662016 37.1134 2.69342e-05 32C2.69342e-05 14.3264 14.3264 0 32 0ZM32 4.8C24.7861 4.8 17.8677 7.6657 12.7667 12.7667C7.66573 17.8677 4.80003 24.7861 4.80003 32C4.80003 36.704 5.99362 41.2256 8.23362 45.2384L8.71362 46.1024L5.15523 58.8512L17.9136 55.2928L18.7776 55.7728C22.4076 57.791 26.4516 58.9511 30.5995 59.1642C34.7474 59.3772 38.889 58.6376 42.7067 57.0019C46.5244 55.3662 49.9168 52.878 52.6238 49.728C55.3308 46.578 57.2805 42.8499 58.3234 38.8297C59.3663 34.8094 59.4746 30.6036 58.6401 26.535C57.8056 22.4663 56.0505 18.6428 53.5093 15.3576C50.968 12.0725 47.7082 9.41286 43.9798 7.58279C40.2514 5.75272 36.1534 4.80079 32 4.8ZM32 43.2C32.8487 43.2 33.6626 43.5371 34.2628 44.1372C34.8629 44.7374 35.2 45.5513 35.2 46.4C35.2 47.2487 34.8629 48.0626 34.2628 48.6627C33.6626 49.2628 32.8487 49.6 32 49.6C31.1513 49.6 30.3374 49.2628 29.7373 48.6627C29.1372 48.0626 28.8 47.2487 28.8 46.4C28.8 45.5513 29.1372 44.7374 29.7373 44.1372C30.3374 43.5371 31.1513 43.2 32 43.2ZM32 15.2C34.3339 15.2 36.5722 16.1271 38.2226 17.7775C39.8729 19.4278 40.8 21.6661 40.8 24C40.8 27.232 39.8496 29.0368 37.4368 31.5488L36.896 32.096C34.9056 34.0864 34.4 34.9312 34.4 36.8C34.4 37.4365 34.1472 38.047 33.6971 38.497C33.247 38.9471 32.6365 39.2 32 39.2C31.3635 39.2 30.753 38.9471 30.303 38.497C29.8529 38.047 29.6 37.4365 29.6 36.8C29.6 33.568 30.5504 31.7632 32.9632 29.2512L33.504 28.704C35.4944 26.7136 36 25.8688 36 24C35.9967 22.9769 35.6015 21.9939 34.8956 21.2533C34.1898 20.5126 33.2269 20.0706 32.2051 20.0182C31.1834 19.9657 30.1803 20.3068 29.4023 20.9712C28.6243 21.6357 28.1305 22.573 28.0224 23.5904L28 24C28 24.6365 27.7472 25.247 27.2971 25.697C26.847 26.1471 26.2365 26.4 25.6 26.4C24.9635 26.4 24.3531 26.1471 23.903 25.697C23.4529 25.247 23.2 24.6365 23.2 24C23.2 21.6661 24.1272 19.4278 25.7775 17.7775C27.4278 16.1271 29.6661 15.2 32 15.2Z" fill="#123C7B"/>
</svg>
